<svg width="400" height="400" viewBox="0 0 400 400" fill="none" xmlns="http://www.w3.org/2000/svg">
<path d="M235 205C237.761 205 240 202.761 240 200C240 197.239 237.761 195 235 195V205ZM87.4645 196.464C85.5118 198.417 85.5118 201.583 87.4645 203.536L119.284 235.355C121.237 237.308 124.403 237.308 126.355 235.355C128.308 233.403 128.308 230.237 126.355 228.284L98.0711 200L126.355 171.716C128.308 169.763 128.308 166.597 126.355 164.645C124.403 162.692 121.237 162.692 119.284 164.645L87.4645 196.464ZM235 195L91 195V205L235 205V195Z" fill="white"/>
<path d="M160 151.5C160 135.138 160 111.314 160 102.998C160 101.341 161.343 100 163 100H307C308.657 100 310 101.343 310 103V297C310 298.657 308.657 300 307 300H163C161.343 300 160 298.657 160 297V251.5" stroke="white" stroke-width="10" stroke-linecap="round"/>
</svg>
