<svg width="400" height="400" viewBox="0 0 400 400" fill="none" xmlns="http://www.w3.org/2000/svg">
<path d="M248.445 132.723C248.445 135.884 247.702 141.185 246.238 148.352C244.795 155.414 242.723 163.962 240.217 173.461C235.206 192.451 228.514 215.045 221.807 236.762C215.102 258.469 208.396 279.257 203.365 294.62C202.02 298.726 200.796 302.444 199.723 305.688C198.65 302.444 197.425 298.726 196.08 294.62C191.049 279.257 184.343 258.469 177.639 236.762C170.931 215.045 164.239 192.451 159.229 173.461C156.723 163.962 154.65 155.414 153.207 148.352C151.743 141.185 151 135.884 151 132.723C151 105.814 172.814 84 199.723 84C226.631 84 248.445 105.814 248.445 132.723Z" fill="white" stroke="#059669" stroke-width="10"/>
<circle cx="200" cy="140" r="25" fill="#059669"/>
<path d="M182.391 152V149.031H183.426C184.116 149.031 184.591 148.96 184.852 148.816C185.112 148.66 185.262 148.439 185.301 148.152C185.353 147.853 185.379 147.495 185.379 147.078V131.18C185.379 130.555 185.255 130.125 185.008 129.891C184.773 129.656 184.272 129.539 183.504 129.539H182.508V126.57C182.846 126.57 183.341 126.577 183.992 126.59C184.643 126.59 185.327 126.596 186.043 126.609C186.759 126.609 187.371 126.609 187.879 126.609C188.139 126.609 188.484 126.609 188.914 126.609C189.344 126.609 189.799 126.609 190.281 126.609C190.776 126.596 191.258 126.59 191.727 126.59C192.208 126.577 192.625 126.57 192.977 126.57C192.977 126.57 193.094 126.915 193.328 127.605C193.576 128.283 193.888 129.188 194.266 130.32C194.656 131.44 195.086 132.677 195.555 134.031C196.023 135.372 196.486 136.72 196.941 138.074C197.397 139.415 197.82 140.652 198.211 141.785C198.615 142.905 198.934 143.81 199.168 144.5C199.402 145.177 199.52 145.516 199.52 145.516C199.598 145.242 199.76 144.734 200.008 143.992C200.255 143.237 200.561 142.339 200.926 141.297C201.29 140.242 201.688 139.116 202.117 137.918C202.547 136.72 202.977 135.516 203.406 134.305C203.836 133.094 204.233 131.961 204.598 130.906C204.975 129.852 205.294 128.94 205.555 128.172C205.828 127.404 206.004 126.87 206.082 126.57C206.434 126.57 206.87 126.577 207.391 126.59C207.911 126.59 208.458 126.596 209.031 126.609C209.604 126.609 210.138 126.609 210.633 126.609C211.128 126.609 211.518 126.609 211.805 126.609C212.234 126.609 212.768 126.609 213.406 126.609C214.057 126.596 214.682 126.59 215.281 126.59C215.88 126.577 216.31 126.57 216.57 126.57V129.539H215.496C214.611 129.539 214.083 129.656 213.914 129.891C213.758 130.112 213.68 130.444 213.68 130.887C213.68 130.887 213.68 131.193 213.68 131.805C213.68 132.404 213.68 133.191 213.68 134.168C213.68 135.145 213.68 136.212 213.68 137.371C213.68 138.53 213.68 139.689 213.68 140.848C213.68 142.007 213.68 143.074 213.68 144.051C213.68 145.014 213.68 145.789 213.68 146.375C213.68 146.961 213.68 147.254 213.68 147.254C213.68 148.009 213.79 148.497 214.012 148.719C214.233 148.927 214.76 149.031 215.594 149.031H216.629V152C215.665 152 214.721 151.993 213.797 151.98C212.885 151.967 211.792 151.961 210.516 151.961C209.461 151.961 208.602 151.967 207.938 151.98C207.286 151.993 206.583 152 205.828 152V149.031H206.766C207.703 149.031 208.27 148.836 208.465 148.445C208.673 148.042 208.777 147.488 208.777 146.785V129.227C208.777 129.227 208.712 129.409 208.582 129.773C208.452 130.125 208.296 130.542 208.113 131.023C207.931 131.505 207.775 131.928 207.645 132.293C207.514 132.645 207.449 132.82 207.449 132.82L200.477 152H197.352C197.117 151.401 196.818 150.607 196.453 149.617C196.089 148.615 195.685 147.501 195.242 146.277C194.812 145.04 194.363 143.771 193.895 142.469C193.439 141.167 192.99 139.904 192.547 138.68C192.117 137.443 191.72 136.323 191.355 135.32C191.004 134.318 190.711 133.517 190.477 132.918C190.424 132.775 190.333 132.534 190.203 132.195C190.086 131.844 189.949 131.466 189.793 131.062C189.65 130.659 189.513 130.294 189.383 129.969C189.266 129.63 189.181 129.402 189.129 129.285V147.352C189.129 148.107 189.24 148.576 189.461 148.758C189.682 148.94 190.197 149.031 191.004 149.031H192.02V152C191.303 152 190.607 151.993 189.93 151.98C189.253 151.967 188.413 151.961 187.41 151.961C186.329 151.961 185.418 151.967 184.676 151.98C183.934 151.993 183.172 152 182.391 152Z" fill="white"/>
</svg>
